%TF.GenerationSoftware,KiCad,Pcbnew,7.0.11*%
%TF.CreationDate,2024-03-05T22:51:16-06:00*%
%TF.ProjectId,moistureSensorShield,6d6f6973-7475-4726-9553-656e736f7253,0*%
%TF.SameCoordinates,Original*%
%TF.FileFunction,Legend,Top*%
%TF.FilePolarity,Positive*%
%FSLAX46Y46*%
G04 Gerber Fmt 4.6, Leading zero omitted, Abs format (unit mm)*
G04 Created by KiCad (PCBNEW 7.0.11) date 2024-03-05 22:51:16*
%MOMM*%
%LPD*%
G01*
G04 APERTURE LIST*
%ADD10C,0.100000*%
%ADD11C,0.150000*%
%ADD12C,0.120000*%
G04 APERTURE END LIST*
D10*
X178021704Y-100708734D02*
X178021704Y-100232544D01*
X178307419Y-100803972D02*
X177307419Y-100470639D01*
X177307419Y-100470639D02*
X178307419Y-100137306D01*
X177402657Y-99851591D02*
X177355038Y-99803972D01*
X177355038Y-99803972D02*
X177307419Y-99708734D01*
X177307419Y-99708734D02*
X177307419Y-99470639D01*
X177307419Y-99470639D02*
X177355038Y-99375401D01*
X177355038Y-99375401D02*
X177402657Y-99327782D01*
X177402657Y-99327782D02*
X177497895Y-99280163D01*
X177497895Y-99280163D02*
X177593133Y-99280163D01*
X177593133Y-99280163D02*
X177735990Y-99327782D01*
X177735990Y-99327782D02*
X178307419Y-99899210D01*
X178307419Y-99899210D02*
X178307419Y-99280163D01*
X178259800Y-81023734D02*
X178307419Y-80880877D01*
X178307419Y-80880877D02*
X178307419Y-80642782D01*
X178307419Y-80642782D02*
X178259800Y-80547544D01*
X178259800Y-80547544D02*
X178212180Y-80499925D01*
X178212180Y-80499925D02*
X178116942Y-80452306D01*
X178116942Y-80452306D02*
X178021704Y-80452306D01*
X178021704Y-80452306D02*
X177926466Y-80499925D01*
X177926466Y-80499925D02*
X177878847Y-80547544D01*
X177878847Y-80547544D02*
X177831228Y-80642782D01*
X177831228Y-80642782D02*
X177783609Y-80833258D01*
X177783609Y-80833258D02*
X177735990Y-80928496D01*
X177735990Y-80928496D02*
X177688371Y-80976115D01*
X177688371Y-80976115D02*
X177593133Y-81023734D01*
X177593133Y-81023734D02*
X177497895Y-81023734D01*
X177497895Y-81023734D02*
X177402657Y-80976115D01*
X177402657Y-80976115D02*
X177355038Y-80928496D01*
X177355038Y-80928496D02*
X177307419Y-80833258D01*
X177307419Y-80833258D02*
X177307419Y-80595163D01*
X177307419Y-80595163D02*
X177355038Y-80452306D01*
X177640752Y-79595163D02*
X178307419Y-79595163D01*
X177259800Y-79833258D02*
X177974085Y-80071353D01*
X177974085Y-80071353D02*
X177974085Y-79452306D01*
X173179800Y-81023734D02*
X173227419Y-80880877D01*
X173227419Y-80880877D02*
X173227419Y-80642782D01*
X173227419Y-80642782D02*
X173179800Y-80547544D01*
X173179800Y-80547544D02*
X173132180Y-80499925D01*
X173132180Y-80499925D02*
X173036942Y-80452306D01*
X173036942Y-80452306D02*
X172941704Y-80452306D01*
X172941704Y-80452306D02*
X172846466Y-80499925D01*
X172846466Y-80499925D02*
X172798847Y-80547544D01*
X172798847Y-80547544D02*
X172751228Y-80642782D01*
X172751228Y-80642782D02*
X172703609Y-80833258D01*
X172703609Y-80833258D02*
X172655990Y-80928496D01*
X172655990Y-80928496D02*
X172608371Y-80976115D01*
X172608371Y-80976115D02*
X172513133Y-81023734D01*
X172513133Y-81023734D02*
X172417895Y-81023734D01*
X172417895Y-81023734D02*
X172322657Y-80976115D01*
X172322657Y-80976115D02*
X172275038Y-80928496D01*
X172275038Y-80928496D02*
X172227419Y-80833258D01*
X172227419Y-80833258D02*
X172227419Y-80595163D01*
X172227419Y-80595163D02*
X172275038Y-80452306D01*
X172227419Y-80118972D02*
X172227419Y-79499925D01*
X172227419Y-79499925D02*
X172608371Y-79833258D01*
X172608371Y-79833258D02*
X172608371Y-79690401D01*
X172608371Y-79690401D02*
X172655990Y-79595163D01*
X172655990Y-79595163D02*
X172703609Y-79547544D01*
X172703609Y-79547544D02*
X172798847Y-79499925D01*
X172798847Y-79499925D02*
X173036942Y-79499925D01*
X173036942Y-79499925D02*
X173132180Y-79547544D01*
X173132180Y-79547544D02*
X173179800Y-79595163D01*
X173179800Y-79595163D02*
X173227419Y-79690401D01*
X173227419Y-79690401D02*
X173227419Y-79976115D01*
X173227419Y-79976115D02*
X173179800Y-80071353D01*
X173179800Y-80071353D02*
X173132180Y-80118972D01*
X167195038Y-100137306D02*
X167147419Y-100232544D01*
X167147419Y-100232544D02*
X167147419Y-100375401D01*
X167147419Y-100375401D02*
X167195038Y-100518258D01*
X167195038Y-100518258D02*
X167290276Y-100613496D01*
X167290276Y-100613496D02*
X167385514Y-100661115D01*
X167385514Y-100661115D02*
X167575990Y-100708734D01*
X167575990Y-100708734D02*
X167718847Y-100708734D01*
X167718847Y-100708734D02*
X167909323Y-100661115D01*
X167909323Y-100661115D02*
X168004561Y-100613496D01*
X168004561Y-100613496D02*
X168099800Y-100518258D01*
X168099800Y-100518258D02*
X168147419Y-100375401D01*
X168147419Y-100375401D02*
X168147419Y-100280163D01*
X168147419Y-100280163D02*
X168099800Y-100137306D01*
X168099800Y-100137306D02*
X168052180Y-100089687D01*
X168052180Y-100089687D02*
X167718847Y-100089687D01*
X167718847Y-100089687D02*
X167718847Y-100280163D01*
X168147419Y-99661115D02*
X167147419Y-99661115D01*
X167147419Y-99661115D02*
X168147419Y-99089687D01*
X168147419Y-99089687D02*
X167147419Y-99089687D01*
X168147419Y-98613496D02*
X167147419Y-98613496D01*
X167147419Y-98613496D02*
X167147419Y-98375401D01*
X167147419Y-98375401D02*
X167195038Y-98232544D01*
X167195038Y-98232544D02*
X167290276Y-98137306D01*
X167290276Y-98137306D02*
X167385514Y-98089687D01*
X167385514Y-98089687D02*
X167575990Y-98042068D01*
X167575990Y-98042068D02*
X167718847Y-98042068D01*
X167718847Y-98042068D02*
X167909323Y-98089687D01*
X167909323Y-98089687D02*
X168004561Y-98137306D01*
X168004561Y-98137306D02*
X168099800Y-98232544D01*
X168099800Y-98232544D02*
X168147419Y-98375401D01*
X168147419Y-98375401D02*
X168147419Y-98613496D01*
X180561704Y-100708734D02*
X180561704Y-100232544D01*
X180847419Y-100803972D02*
X179847419Y-100470639D01*
X179847419Y-100470639D02*
X180847419Y-100137306D01*
X179847419Y-99899210D02*
X179847419Y-99280163D01*
X179847419Y-99280163D02*
X180228371Y-99613496D01*
X180228371Y-99613496D02*
X180228371Y-99470639D01*
X180228371Y-99470639D02*
X180275990Y-99375401D01*
X180275990Y-99375401D02*
X180323609Y-99327782D01*
X180323609Y-99327782D02*
X180418847Y-99280163D01*
X180418847Y-99280163D02*
X180656942Y-99280163D01*
X180656942Y-99280163D02*
X180752180Y-99327782D01*
X180752180Y-99327782D02*
X180799800Y-99375401D01*
X180799800Y-99375401D02*
X180847419Y-99470639D01*
X180847419Y-99470639D02*
X180847419Y-99756353D01*
X180847419Y-99756353D02*
X180799800Y-99851591D01*
X180799800Y-99851591D02*
X180752180Y-99899210D01*
X172703609Y-100661115D02*
X172703609Y-100327782D01*
X173227419Y-100184925D02*
X173227419Y-100661115D01*
X173227419Y-100661115D02*
X172227419Y-100661115D01*
X172227419Y-100661115D02*
X172227419Y-100184925D01*
X173227419Y-99756353D02*
X172227419Y-99756353D01*
X172227419Y-99756353D02*
X173227419Y-99184925D01*
X173227419Y-99184925D02*
X172227419Y-99184925D01*
X168099800Y-81023734D02*
X168147419Y-80880877D01*
X168147419Y-80880877D02*
X168147419Y-80642782D01*
X168147419Y-80642782D02*
X168099800Y-80547544D01*
X168099800Y-80547544D02*
X168052180Y-80499925D01*
X168052180Y-80499925D02*
X167956942Y-80452306D01*
X167956942Y-80452306D02*
X167861704Y-80452306D01*
X167861704Y-80452306D02*
X167766466Y-80499925D01*
X167766466Y-80499925D02*
X167718847Y-80547544D01*
X167718847Y-80547544D02*
X167671228Y-80642782D01*
X167671228Y-80642782D02*
X167623609Y-80833258D01*
X167623609Y-80833258D02*
X167575990Y-80928496D01*
X167575990Y-80928496D02*
X167528371Y-80976115D01*
X167528371Y-80976115D02*
X167433133Y-81023734D01*
X167433133Y-81023734D02*
X167337895Y-81023734D01*
X167337895Y-81023734D02*
X167242657Y-80976115D01*
X167242657Y-80976115D02*
X167195038Y-80928496D01*
X167195038Y-80928496D02*
X167147419Y-80833258D01*
X167147419Y-80833258D02*
X167147419Y-80595163D01*
X167147419Y-80595163D02*
X167195038Y-80452306D01*
X167242657Y-80071353D02*
X167195038Y-80023734D01*
X167195038Y-80023734D02*
X167147419Y-79928496D01*
X167147419Y-79928496D02*
X167147419Y-79690401D01*
X167147419Y-79690401D02*
X167195038Y-79595163D01*
X167195038Y-79595163D02*
X167242657Y-79547544D01*
X167242657Y-79547544D02*
X167337895Y-79499925D01*
X167337895Y-79499925D02*
X167433133Y-79499925D01*
X167433133Y-79499925D02*
X167575990Y-79547544D01*
X167575990Y-79547544D02*
X168147419Y-80118972D01*
X168147419Y-80118972D02*
X168147419Y-79499925D01*
X185641704Y-100708734D02*
X185641704Y-100232544D01*
X185927419Y-100803972D02*
X184927419Y-100470639D01*
X184927419Y-100470639D02*
X185927419Y-100137306D01*
X184927419Y-99327782D02*
X184927419Y-99803972D01*
X184927419Y-99803972D02*
X185403609Y-99851591D01*
X185403609Y-99851591D02*
X185355990Y-99803972D01*
X185355990Y-99803972D02*
X185308371Y-99708734D01*
X185308371Y-99708734D02*
X185308371Y-99470639D01*
X185308371Y-99470639D02*
X185355990Y-99375401D01*
X185355990Y-99375401D02*
X185403609Y-99327782D01*
X185403609Y-99327782D02*
X185498847Y-99280163D01*
X185498847Y-99280163D02*
X185736942Y-99280163D01*
X185736942Y-99280163D02*
X185832180Y-99327782D01*
X185832180Y-99327782D02*
X185879800Y-99375401D01*
X185879800Y-99375401D02*
X185927419Y-99470639D01*
X185927419Y-99470639D02*
X185927419Y-99708734D01*
X185927419Y-99708734D02*
X185879800Y-99803972D01*
X185879800Y-99803972D02*
X185832180Y-99851591D01*
X160146466Y-84151115D02*
X160146466Y-83389211D01*
X188419800Y-81023734D02*
X188467419Y-80880877D01*
X188467419Y-80880877D02*
X188467419Y-80642782D01*
X188467419Y-80642782D02*
X188419800Y-80547544D01*
X188419800Y-80547544D02*
X188372180Y-80499925D01*
X188372180Y-80499925D02*
X188276942Y-80452306D01*
X188276942Y-80452306D02*
X188181704Y-80452306D01*
X188181704Y-80452306D02*
X188086466Y-80499925D01*
X188086466Y-80499925D02*
X188038847Y-80547544D01*
X188038847Y-80547544D02*
X187991228Y-80642782D01*
X187991228Y-80642782D02*
X187943609Y-80833258D01*
X187943609Y-80833258D02*
X187895990Y-80928496D01*
X187895990Y-80928496D02*
X187848371Y-80976115D01*
X187848371Y-80976115D02*
X187753133Y-81023734D01*
X187753133Y-81023734D02*
X187657895Y-81023734D01*
X187657895Y-81023734D02*
X187562657Y-80976115D01*
X187562657Y-80976115D02*
X187515038Y-80928496D01*
X187515038Y-80928496D02*
X187467419Y-80833258D01*
X187467419Y-80833258D02*
X187467419Y-80595163D01*
X187467419Y-80595163D02*
X187515038Y-80452306D01*
X187467419Y-79595163D02*
X187467419Y-79785639D01*
X187467419Y-79785639D02*
X187515038Y-79880877D01*
X187515038Y-79880877D02*
X187562657Y-79928496D01*
X187562657Y-79928496D02*
X187705514Y-80023734D01*
X187705514Y-80023734D02*
X187895990Y-80071353D01*
X187895990Y-80071353D02*
X188276942Y-80071353D01*
X188276942Y-80071353D02*
X188372180Y-80023734D01*
X188372180Y-80023734D02*
X188419800Y-79976115D01*
X188419800Y-79976115D02*
X188467419Y-79880877D01*
X188467419Y-79880877D02*
X188467419Y-79690401D01*
X188467419Y-79690401D02*
X188419800Y-79595163D01*
X188419800Y-79595163D02*
X188372180Y-79547544D01*
X188372180Y-79547544D02*
X188276942Y-79499925D01*
X188276942Y-79499925D02*
X188038847Y-79499925D01*
X188038847Y-79499925D02*
X187943609Y-79547544D01*
X187943609Y-79547544D02*
X187895990Y-79595163D01*
X187895990Y-79595163D02*
X187848371Y-79690401D01*
X187848371Y-79690401D02*
X187848371Y-79880877D01*
X187848371Y-79880877D02*
X187895990Y-79976115D01*
X187895990Y-79976115D02*
X187943609Y-80023734D01*
X187943609Y-80023734D02*
X188038847Y-80071353D01*
X154608884Y-86232419D02*
X154608884Y-85232419D01*
X154608884Y-85232419D02*
X154989836Y-85232419D01*
X154989836Y-85232419D02*
X155085074Y-85280038D01*
X155085074Y-85280038D02*
X155132693Y-85327657D01*
X155132693Y-85327657D02*
X155180312Y-85422895D01*
X155180312Y-85422895D02*
X155180312Y-85565752D01*
X155180312Y-85565752D02*
X155132693Y-85660990D01*
X155132693Y-85660990D02*
X155085074Y-85708609D01*
X155085074Y-85708609D02*
X154989836Y-85756228D01*
X154989836Y-85756228D02*
X154608884Y-85756228D01*
X155513646Y-85232419D02*
X155751741Y-86232419D01*
X155751741Y-86232419D02*
X155942217Y-85518133D01*
X155942217Y-85518133D02*
X156132693Y-86232419D01*
X156132693Y-86232419D02*
X156370789Y-85232419D01*
X157323169Y-86232419D02*
X156989836Y-85756228D01*
X156751741Y-86232419D02*
X156751741Y-85232419D01*
X156751741Y-85232419D02*
X157132693Y-85232419D01*
X157132693Y-85232419D02*
X157227931Y-85280038D01*
X157227931Y-85280038D02*
X157275550Y-85327657D01*
X157275550Y-85327657D02*
X157323169Y-85422895D01*
X157323169Y-85422895D02*
X157323169Y-85565752D01*
X157323169Y-85565752D02*
X157275550Y-85660990D01*
X157275550Y-85660990D02*
X157227931Y-85708609D01*
X157227931Y-85708609D02*
X157132693Y-85756228D01*
X157132693Y-85756228D02*
X156751741Y-85756228D01*
X159688884Y-86486466D02*
X160450789Y-86486466D01*
X160069836Y-86867419D02*
X160069836Y-86105514D01*
X175481704Y-100708734D02*
X175481704Y-100232544D01*
X175767419Y-100803972D02*
X174767419Y-100470639D01*
X174767419Y-100470639D02*
X175767419Y-100137306D01*
X175767419Y-99280163D02*
X175767419Y-99851591D01*
X175767419Y-99565877D02*
X174767419Y-99565877D01*
X174767419Y-99565877D02*
X174910276Y-99661115D01*
X174910276Y-99661115D02*
X175005514Y-99756353D01*
X175005514Y-99756353D02*
X175053133Y-99851591D01*
X188181704Y-100708734D02*
X188181704Y-100232544D01*
X188467419Y-100803972D02*
X187467419Y-100470639D01*
X187467419Y-100470639D02*
X188467419Y-100137306D01*
X187467419Y-99375401D02*
X187467419Y-99565877D01*
X187467419Y-99565877D02*
X187515038Y-99661115D01*
X187515038Y-99661115D02*
X187562657Y-99708734D01*
X187562657Y-99708734D02*
X187705514Y-99803972D01*
X187705514Y-99803972D02*
X187895990Y-99851591D01*
X187895990Y-99851591D02*
X188276942Y-99851591D01*
X188276942Y-99851591D02*
X188372180Y-99803972D01*
X188372180Y-99803972D02*
X188419800Y-99756353D01*
X188419800Y-99756353D02*
X188467419Y-99661115D01*
X188467419Y-99661115D02*
X188467419Y-99470639D01*
X188467419Y-99470639D02*
X188419800Y-99375401D01*
X188419800Y-99375401D02*
X188372180Y-99327782D01*
X188372180Y-99327782D02*
X188276942Y-99280163D01*
X188276942Y-99280163D02*
X188038847Y-99280163D01*
X188038847Y-99280163D02*
X187943609Y-99327782D01*
X187943609Y-99327782D02*
X187895990Y-99375401D01*
X187895990Y-99375401D02*
X187848371Y-99470639D01*
X187848371Y-99470639D02*
X187848371Y-99661115D01*
X187848371Y-99661115D02*
X187895990Y-99756353D01*
X187895990Y-99756353D02*
X187943609Y-99803972D01*
X187943609Y-99803972D02*
X188038847Y-99851591D01*
X169687419Y-100803972D02*
X170687419Y-100470639D01*
X170687419Y-100470639D02*
X169687419Y-100137306D01*
X170592180Y-99232544D02*
X170639800Y-99280163D01*
X170639800Y-99280163D02*
X170687419Y-99423020D01*
X170687419Y-99423020D02*
X170687419Y-99518258D01*
X170687419Y-99518258D02*
X170639800Y-99661115D01*
X170639800Y-99661115D02*
X170544561Y-99756353D01*
X170544561Y-99756353D02*
X170449323Y-99803972D01*
X170449323Y-99803972D02*
X170258847Y-99851591D01*
X170258847Y-99851591D02*
X170115990Y-99851591D01*
X170115990Y-99851591D02*
X169925514Y-99803972D01*
X169925514Y-99803972D02*
X169830276Y-99756353D01*
X169830276Y-99756353D02*
X169735038Y-99661115D01*
X169735038Y-99661115D02*
X169687419Y-99518258D01*
X169687419Y-99518258D02*
X169687419Y-99423020D01*
X169687419Y-99423020D02*
X169735038Y-99280163D01*
X169735038Y-99280163D02*
X169782657Y-99232544D01*
X170592180Y-98232544D02*
X170639800Y-98280163D01*
X170639800Y-98280163D02*
X170687419Y-98423020D01*
X170687419Y-98423020D02*
X170687419Y-98518258D01*
X170687419Y-98518258D02*
X170639800Y-98661115D01*
X170639800Y-98661115D02*
X170544561Y-98756353D01*
X170544561Y-98756353D02*
X170449323Y-98803972D01*
X170449323Y-98803972D02*
X170258847Y-98851591D01*
X170258847Y-98851591D02*
X170115990Y-98851591D01*
X170115990Y-98851591D02*
X169925514Y-98803972D01*
X169925514Y-98803972D02*
X169830276Y-98756353D01*
X169830276Y-98756353D02*
X169735038Y-98661115D01*
X169735038Y-98661115D02*
X169687419Y-98518258D01*
X169687419Y-98518258D02*
X169687419Y-98423020D01*
X169687419Y-98423020D02*
X169735038Y-98280163D01*
X169735038Y-98280163D02*
X169782657Y-98232544D01*
X160527419Y-89866115D02*
X159527419Y-89866115D01*
X159527419Y-89866115D02*
X159527419Y-89628020D01*
X159527419Y-89628020D02*
X159575038Y-89485163D01*
X159575038Y-89485163D02*
X159670276Y-89389925D01*
X159670276Y-89389925D02*
X159765514Y-89342306D01*
X159765514Y-89342306D02*
X159955990Y-89294687D01*
X159955990Y-89294687D02*
X160098847Y-89294687D01*
X160098847Y-89294687D02*
X160289323Y-89342306D01*
X160289323Y-89342306D02*
X160384561Y-89389925D01*
X160384561Y-89389925D02*
X160479800Y-89485163D01*
X160479800Y-89485163D02*
X160527419Y-89628020D01*
X160527419Y-89628020D02*
X160527419Y-89866115D01*
X160241704Y-88913734D02*
X160241704Y-88437544D01*
X160527419Y-89008972D02*
X159527419Y-88675639D01*
X159527419Y-88675639D02*
X160527419Y-88342306D01*
X159527419Y-88151829D02*
X159527419Y-87580401D01*
X160527419Y-87866115D02*
X159527419Y-87866115D01*
X183339800Y-81023734D02*
X183387419Y-80880877D01*
X183387419Y-80880877D02*
X183387419Y-80642782D01*
X183387419Y-80642782D02*
X183339800Y-80547544D01*
X183339800Y-80547544D02*
X183292180Y-80499925D01*
X183292180Y-80499925D02*
X183196942Y-80452306D01*
X183196942Y-80452306D02*
X183101704Y-80452306D01*
X183101704Y-80452306D02*
X183006466Y-80499925D01*
X183006466Y-80499925D02*
X182958847Y-80547544D01*
X182958847Y-80547544D02*
X182911228Y-80642782D01*
X182911228Y-80642782D02*
X182863609Y-80833258D01*
X182863609Y-80833258D02*
X182815990Y-80928496D01*
X182815990Y-80928496D02*
X182768371Y-80976115D01*
X182768371Y-80976115D02*
X182673133Y-81023734D01*
X182673133Y-81023734D02*
X182577895Y-81023734D01*
X182577895Y-81023734D02*
X182482657Y-80976115D01*
X182482657Y-80976115D02*
X182435038Y-80928496D01*
X182435038Y-80928496D02*
X182387419Y-80833258D01*
X182387419Y-80833258D02*
X182387419Y-80595163D01*
X182387419Y-80595163D02*
X182435038Y-80452306D01*
X182387419Y-79547544D02*
X182387419Y-80023734D01*
X182387419Y-80023734D02*
X182863609Y-80071353D01*
X182863609Y-80071353D02*
X182815990Y-80023734D01*
X182815990Y-80023734D02*
X182768371Y-79928496D01*
X182768371Y-79928496D02*
X182768371Y-79690401D01*
X182768371Y-79690401D02*
X182815990Y-79595163D01*
X182815990Y-79595163D02*
X182863609Y-79547544D01*
X182863609Y-79547544D02*
X182958847Y-79499925D01*
X182958847Y-79499925D02*
X183196942Y-79499925D01*
X183196942Y-79499925D02*
X183292180Y-79547544D01*
X183292180Y-79547544D02*
X183339800Y-79595163D01*
X183339800Y-79595163D02*
X183387419Y-79690401D01*
X183387419Y-79690401D02*
X183387419Y-79928496D01*
X183387419Y-79928496D02*
X183339800Y-80023734D01*
X183339800Y-80023734D02*
X183292180Y-80071353D01*
X163019800Y-81023734D02*
X163067419Y-80880877D01*
X163067419Y-80880877D02*
X163067419Y-80642782D01*
X163067419Y-80642782D02*
X163019800Y-80547544D01*
X163019800Y-80547544D02*
X162972180Y-80499925D01*
X162972180Y-80499925D02*
X162876942Y-80452306D01*
X162876942Y-80452306D02*
X162781704Y-80452306D01*
X162781704Y-80452306D02*
X162686466Y-80499925D01*
X162686466Y-80499925D02*
X162638847Y-80547544D01*
X162638847Y-80547544D02*
X162591228Y-80642782D01*
X162591228Y-80642782D02*
X162543609Y-80833258D01*
X162543609Y-80833258D02*
X162495990Y-80928496D01*
X162495990Y-80928496D02*
X162448371Y-80976115D01*
X162448371Y-80976115D02*
X162353133Y-81023734D01*
X162353133Y-81023734D02*
X162257895Y-81023734D01*
X162257895Y-81023734D02*
X162162657Y-80976115D01*
X162162657Y-80976115D02*
X162115038Y-80928496D01*
X162115038Y-80928496D02*
X162067419Y-80833258D01*
X162067419Y-80833258D02*
X162067419Y-80595163D01*
X162067419Y-80595163D02*
X162115038Y-80452306D01*
X163067419Y-79499925D02*
X163067419Y-80071353D01*
X163067419Y-79785639D02*
X162067419Y-79785639D01*
X162067419Y-79785639D02*
X162210276Y-79880877D01*
X162210276Y-79880877D02*
X162305514Y-79976115D01*
X162305514Y-79976115D02*
X162353133Y-80071353D01*
X183101704Y-100708734D02*
X183101704Y-100232544D01*
X183387419Y-100803972D02*
X182387419Y-100470639D01*
X182387419Y-100470639D02*
X183387419Y-100137306D01*
X182720752Y-99375401D02*
X183387419Y-99375401D01*
X182339800Y-99613496D02*
X183054085Y-99851591D01*
X183054085Y-99851591D02*
X183054085Y-99232544D01*
X191642419Y-94946115D02*
X190642419Y-94946115D01*
X191642419Y-94469925D02*
X190642419Y-94469925D01*
X190642419Y-94469925D02*
X191642419Y-93898497D01*
X191642419Y-93898497D02*
X190642419Y-93898497D01*
X191118609Y-93088973D02*
X191118609Y-93422306D01*
X191642419Y-93422306D02*
X190642419Y-93422306D01*
X190642419Y-93422306D02*
X190642419Y-92946116D01*
X190642419Y-92374687D02*
X190642419Y-92184211D01*
X190642419Y-92184211D02*
X190690038Y-92088973D01*
X190690038Y-92088973D02*
X190785276Y-91993735D01*
X190785276Y-91993735D02*
X190975752Y-91946116D01*
X190975752Y-91946116D02*
X191309085Y-91946116D01*
X191309085Y-91946116D02*
X191499561Y-91993735D01*
X191499561Y-91993735D02*
X191594800Y-92088973D01*
X191594800Y-92088973D02*
X191642419Y-92184211D01*
X191642419Y-92184211D02*
X191642419Y-92374687D01*
X191642419Y-92374687D02*
X191594800Y-92469925D01*
X191594800Y-92469925D02*
X191499561Y-92565163D01*
X191499561Y-92565163D02*
X191309085Y-92612782D01*
X191309085Y-92612782D02*
X190975752Y-92612782D01*
X190975752Y-92612782D02*
X190785276Y-92565163D01*
X190785276Y-92565163D02*
X190690038Y-92469925D01*
X190690038Y-92469925D02*
X190642419Y-92374687D01*
X191118609Y-91517544D02*
X191118609Y-91184211D01*
X191642419Y-91041354D02*
X191642419Y-91517544D01*
X191642419Y-91517544D02*
X190642419Y-91517544D01*
X190642419Y-91517544D02*
X190642419Y-91041354D01*
X191642419Y-90612782D02*
X190642419Y-90612782D01*
X190642419Y-90612782D02*
X191642419Y-90041354D01*
X191642419Y-90041354D02*
X190642419Y-90041354D01*
X190690038Y-89041354D02*
X190642419Y-89136592D01*
X190642419Y-89136592D02*
X190642419Y-89279449D01*
X190642419Y-89279449D02*
X190690038Y-89422306D01*
X190690038Y-89422306D02*
X190785276Y-89517544D01*
X190785276Y-89517544D02*
X190880514Y-89565163D01*
X190880514Y-89565163D02*
X191070990Y-89612782D01*
X191070990Y-89612782D02*
X191213847Y-89612782D01*
X191213847Y-89612782D02*
X191404323Y-89565163D01*
X191404323Y-89565163D02*
X191499561Y-89517544D01*
X191499561Y-89517544D02*
X191594800Y-89422306D01*
X191594800Y-89422306D02*
X191642419Y-89279449D01*
X191642419Y-89279449D02*
X191642419Y-89184211D01*
X191642419Y-89184211D02*
X191594800Y-89041354D01*
X191594800Y-89041354D02*
X191547180Y-88993735D01*
X191547180Y-88993735D02*
X191213847Y-88993735D01*
X191213847Y-88993735D02*
X191213847Y-89184211D01*
X190737657Y-88612782D02*
X190690038Y-88565163D01*
X190690038Y-88565163D02*
X190642419Y-88469925D01*
X190642419Y-88469925D02*
X190642419Y-88231830D01*
X190642419Y-88231830D02*
X190690038Y-88136592D01*
X190690038Y-88136592D02*
X190737657Y-88088973D01*
X190737657Y-88088973D02*
X190832895Y-88041354D01*
X190832895Y-88041354D02*
X190928133Y-88041354D01*
X190928133Y-88041354D02*
X191070990Y-88088973D01*
X191070990Y-88088973D02*
X191642419Y-88660401D01*
X191642419Y-88660401D02*
X191642419Y-88041354D01*
X190642419Y-87422306D02*
X190642419Y-87327068D01*
X190642419Y-87327068D02*
X190690038Y-87231830D01*
X190690038Y-87231830D02*
X190737657Y-87184211D01*
X190737657Y-87184211D02*
X190832895Y-87136592D01*
X190832895Y-87136592D02*
X191023371Y-87088973D01*
X191023371Y-87088973D02*
X191261466Y-87088973D01*
X191261466Y-87088973D02*
X191451942Y-87136592D01*
X191451942Y-87136592D02*
X191547180Y-87184211D01*
X191547180Y-87184211D02*
X191594800Y-87231830D01*
X191594800Y-87231830D02*
X191642419Y-87327068D01*
X191642419Y-87327068D02*
X191642419Y-87422306D01*
X191642419Y-87422306D02*
X191594800Y-87517544D01*
X191594800Y-87517544D02*
X191547180Y-87565163D01*
X191547180Y-87565163D02*
X191451942Y-87612782D01*
X191451942Y-87612782D02*
X191261466Y-87660401D01*
X191261466Y-87660401D02*
X191023371Y-87660401D01*
X191023371Y-87660401D02*
X190832895Y-87612782D01*
X190832895Y-87612782D02*
X190737657Y-87565163D01*
X190737657Y-87565163D02*
X190690038Y-87517544D01*
X190690038Y-87517544D02*
X190642419Y-87422306D01*
X190737657Y-86708020D02*
X190690038Y-86660401D01*
X190690038Y-86660401D02*
X190642419Y-86565163D01*
X190642419Y-86565163D02*
X190642419Y-86327068D01*
X190642419Y-86327068D02*
X190690038Y-86231830D01*
X190690038Y-86231830D02*
X190737657Y-86184211D01*
X190737657Y-86184211D02*
X190832895Y-86136592D01*
X190832895Y-86136592D02*
X190928133Y-86136592D01*
X190928133Y-86136592D02*
X191070990Y-86184211D01*
X191070990Y-86184211D02*
X191642419Y-86755639D01*
X191642419Y-86755639D02*
X191642419Y-86136592D01*
X190975752Y-85279449D02*
X191642419Y-85279449D01*
X190594800Y-85517544D02*
X191309085Y-85755639D01*
X191309085Y-85755639D02*
X191309085Y-85136592D01*
D11*
X156043333Y-93799819D02*
X155710000Y-93323628D01*
X155471905Y-93799819D02*
X155471905Y-92799819D01*
X155471905Y-92799819D02*
X155852857Y-92799819D01*
X155852857Y-92799819D02*
X155948095Y-92847438D01*
X155948095Y-92847438D02*
X155995714Y-92895057D01*
X155995714Y-92895057D02*
X156043333Y-92990295D01*
X156043333Y-92990295D02*
X156043333Y-93133152D01*
X156043333Y-93133152D02*
X155995714Y-93228390D01*
X155995714Y-93228390D02*
X155948095Y-93276009D01*
X155948095Y-93276009D02*
X155852857Y-93323628D01*
X155852857Y-93323628D02*
X155471905Y-93323628D01*
X156995714Y-93799819D02*
X156424286Y-93799819D01*
X156710000Y-93799819D02*
X156710000Y-92799819D01*
X156710000Y-92799819D02*
X156614762Y-92942676D01*
X156614762Y-92942676D02*
X156519524Y-93037914D01*
X156519524Y-93037914D02*
X156424286Y-93085533D01*
D12*
%TO.C,R1*%
X154290000Y-92425000D02*
X158130000Y-92425000D01*
X154290000Y-94265000D02*
X158130000Y-94265000D01*
%TO.C,D1*%
X154645000Y-87664000D02*
X154645000Y-87820000D01*
X154645000Y-89980000D02*
X154645000Y-90136000D01*
X157246129Y-87820164D02*
G75*
G03*
X155164040Y-87820001I-1041129J-1079836D01*
G01*
X154645001Y-90135515D02*
G75*
G03*
X157877334Y-89978608I1559999J1235515D01*
G01*
X155164040Y-89979999D02*
G75*
G03*
X157246129Y-89979836I1040960J1079999D01*
G01*
X157877334Y-87821392D02*
G75*
G03*
X154645001Y-87664485I-1672334J-1078608D01*
G01*
%TO.C,J7*%
X189290000Y-90230000D02*
X187960000Y-90230000D01*
X189290000Y-88900000D02*
X189290000Y-90230000D01*
X189290000Y-87630000D02*
X189290000Y-82490000D01*
X189290000Y-87630000D02*
X186630000Y-87630000D01*
X189290000Y-82490000D02*
X186630000Y-82490000D01*
X186630000Y-87630000D02*
X186630000Y-82490000D01*
%TO.C,J3*%
X168970000Y-90230000D02*
X167640000Y-90230000D01*
X168970000Y-88900000D02*
X168970000Y-90230000D01*
X168970000Y-87630000D02*
X168970000Y-82490000D01*
X168970000Y-87630000D02*
X166310000Y-87630000D01*
X168970000Y-82490000D02*
X166310000Y-82490000D01*
X166310000Y-87630000D02*
X166310000Y-82490000D01*
%TO.C,Q1*%
X160710000Y-93450000D02*
X160710000Y-97050000D01*
X165160000Y-95250000D02*
G75*
G03*
X160721522Y-93411522I-2600000J0D01*
G01*
X160721522Y-97088478D02*
G75*
G03*
X165160000Y-95250000I1838478J1838478D01*
G01*
%TO.C,J2*%
X163890000Y-90230000D02*
X162560000Y-90230000D01*
X163890000Y-88900000D02*
X163890000Y-90230000D01*
X163890000Y-87630000D02*
X163890000Y-82490000D01*
X163890000Y-87630000D02*
X161230000Y-87630000D01*
X163890000Y-82490000D02*
X161230000Y-82490000D01*
X161230000Y-87630000D02*
X161230000Y-82490000D01*
%TO.C,J5*%
X179130000Y-90230000D02*
X177800000Y-90230000D01*
X179130000Y-88900000D02*
X179130000Y-90230000D01*
X179130000Y-87630000D02*
X179130000Y-82490000D01*
X179130000Y-87630000D02*
X176470000Y-87630000D01*
X179130000Y-82490000D02*
X176470000Y-82490000D01*
X176470000Y-87630000D02*
X176470000Y-82490000D01*
%TO.C,J1*%
X166310000Y-97850000D02*
X166310000Y-96520000D01*
X167640000Y-97850000D02*
X166310000Y-97850000D01*
X168910000Y-97850000D02*
X189290000Y-97850000D01*
X168910000Y-97850000D02*
X168910000Y-95190000D01*
X189290000Y-97850000D02*
X189290000Y-95190000D01*
X168910000Y-95190000D02*
X189290000Y-95190000D01*
%TO.C,J6*%
X184210000Y-90230000D02*
X182880000Y-90230000D01*
X184210000Y-88900000D02*
X184210000Y-90230000D01*
X184210000Y-87630000D02*
X184210000Y-82490000D01*
X184210000Y-87630000D02*
X181550000Y-87630000D01*
X184210000Y-82490000D02*
X181550000Y-82490000D01*
X181550000Y-87630000D02*
X181550000Y-82490000D01*
%TO.C,J4*%
X174050000Y-90230000D02*
X172720000Y-90230000D01*
X174050000Y-88900000D02*
X174050000Y-90230000D01*
X174050000Y-87630000D02*
X174050000Y-82490000D01*
X174050000Y-87630000D02*
X171390000Y-87630000D01*
X174050000Y-82490000D02*
X171390000Y-82490000D01*
X171390000Y-87630000D02*
X171390000Y-82490000D01*
%TD*%
M02*
